<svg xmlns="http://www.w3.org/2000/svg" viewBox="0 0 240 60" role="img" aria-label="Marlin Rentals">
  <defs>
    <linearGradient id="fin" x1="0" y1="0" x2="1" y2="1">
      <stop offset="0" stop-color="#00c2d1"/>
      <stop offset="1" stop-color="#0089b3"/>
    </linearGradient>
  </defs>
  <g transform="translate(0,8)">
    <path fill="url(#fin)" d="M4 22c8-14 26-20 38-14 4 2 6 6 4 10-2 5-9 6-14 4-7-3-15-2-20 4-3 4-8 2-8-4z"/>
    <path fill="#ff2e63" d="M40 8c4 4 6 9 6 14s-2 10-6 14c6-2 12-7 14-14-2-7-8-12-14-14z"/>
    <circle cx="14" cy="18" r="1.6" fill="#04364a"/>
  </g>
  <text x="58" y="26" font-family="'Segoe UI', Arial, sans-serif" font-size="20" font-weight="700" fill="#0089b3">Marlin</text>
  <text x="58" y="46" font-family="'Segoe UI', Arial, sans-serif" font-size="20" font-weight="700" fill="#ff2e63">Rentals</text>
</svg>
